<?xml version="1.0" encoding="UTF-8"?>
<!DOCTYPE svg PUBLIC "-//W3C//DTD SVG 1.1//EN" "http://www.w3.org/Graphics/SVG/1.1/DTD/svg11.dtd">
<!-- Creator: CorelDRAW X7 -->
<svg xmlns="http://www.w3.org/2000/svg" xml:space="preserve" width="54.1444mm" height="54.1444mm" version="1.1" style="shape-rendering:geometricPrecision; text-rendering:geometricPrecision; image-rendering:optimizeQuality; fill-rule:evenodd; clip-rule:evenodd"
viewBox="0 0 23792 23792"
 xmlns:xlink="http://www.w3.org/1999/xlink">
 <defs>
  <style type="text/css">
   <![CDATA[
    .fil1 {fill:none}
    .fil0 {fill:#2B2A29}
   ]]>
  </style>
 </defs>
 <g id="Слой_x0020_1">
  <metadata id="CorelCorpID_0Corel-Layer"/>
  <path class="fil0" d="M11946 529c3839,0 6718,2968 6862,6642 19,0 -36,11722 -36,12823l661 0 0 202 197 0 0 3180 -15468 0 0 -3180 197 0 0 -202 806 0 6 -12823c154,-3719 2936,-6642 6775,-6642zm5077 19465l4 -12823c-19,-2710 -2443,-4999 -5106,-4999 -2663,0 -5003,2357 -4999,4999 4,0 24,11727 24,12823l999 0 0 -12495c0,-2383 1779,-4235 3954,-4235 2369,0 4019,1929 4019,4235l0 12495 1105 0z"/>
  <rect class="fil1" width="23792" height="23792"/>
 </g>
</svg>
