<?xml version="1.0" encoding="UTF-8"?>
<!DOCTYPE svg PUBLIC "-//W3C//DTD SVG 1.1//EN" "http://www.w3.org/Graphics/SVG/1.1/DTD/svg11.dtd">
<!-- Creator: CorelDRAW X7 -->
<svg xmlns="http://www.w3.org/2000/svg" xml:space="preserve" width="171.579mm" height="171.579mm" version="1.1" style="shape-rendering:geometricPrecision; text-rendering:geometricPrecision; image-rendering:optimizeQuality; fill-rule:evenodd; clip-rule:evenodd"
viewBox="0 0 1042310 1042310"
 xmlns:xlink="http://www.w3.org/1999/xlink">
 <defs>
  <style type="text/css">
   <![CDATA[
    .fil1 {fill:none}
    .fil0 {fill:black}
   ]]>
  </style>
 </defs>
 <g id="Слой_x0020_1">
  <metadata id="CorelCorpID_0Corel-Layer"/>
  <path class="fil0" d="M904559 244577c0,54840 -44461,99309 -99310,99309 -54840,0 -99309,-44468 -99309,-99309 0,-54849 44468,-99310 99309,-99310 54849,0 99310,44461 99310,99310zm98078 763444l-97903 0 -286818 -304741 -121569 134368 30614 45733c3541,5181 3876,11904 862,17403 -3005,5500 -8849,8849 -15119,8656l-81905 0 -88376 98581 -72011 0 0 -94294 -34288 0 0 94294 -127145 0c-9468,0 -17144,7677 -17144,17145 0,9467 7677,17144 17144,17144l893658 0c9468,0 17145,-7677 17145,-17144 0,-9468 -7677,-17145 -17145,-17145zm-980887 -132869l214374 0 0 -58005 -60374 -37203c-8163,-4880 -10858,-15428 -6044,-23623 5248,-8045 15947,-10473 24151,-5467l42267 25876 0 -116822c0,-9468 7676,-17145 17144,-17145 9476,0 17144,7677 17144,17145l0 49725 19673 -17203c3373,-2930 7786,-4362 12231,-3977 4444,394 8547,2571 11359,6036 3006,3399 4529,7861 4245,12398 -293,4529 -2369,8765 -5785,11762l-41722 35829 0 120673 210221 1 -103512 -154351c-3507,-5040 -3842,-11637 -854,-17003 3030,-5483 8857,-8823 15118,-8664l53485 0 -100406 -124448c-4152,-5215 -4989,-12331 -2143,-18358 2896,-5868 8940,-9518 15479,-9351l57361 -1 -86812 -122723c-3708,-5358 -4185,-12314 -1247,-18132 2955,-5668 8840,-9209 15236,-9159l23741 0 -114085 -146255 -106483 146255 24177 0c6421,42 12281,3642 15227,9351 2947,5701 2487,12565 -1197,17823l-86032 122840 53040 0c6564,-108 12591,3592 15454,9494 2855,5901 2035,12933 -2118,18014l-100406 124650 43506 0c6178,-243 11971,2972 15052,8330 2996,5290 2754,11829 -636,16885l-99829 154803zm678095 -549423l-45916 45916c-6689,6697 -6689,17555 0,24244 6697,6696 17554,6696 24252,0l45925 -45917c4370,-4320 6094,-10657 4520,-16600 -1582,-5944 -6228,-10581 -12172,-12164 -5944,-1574 -12272,151 -16600,4521l-9 0zm202285 -160889c4546,0 8916,-1809 12131,-5023l42317 -42317c6689,-6697 6689,-17555 -9,-24252 -6696,-6689 -17546,-6689 -24243,8l-42317 42309c-4906,4898 -6371,12273 -3717,18677 2654,6404 8907,10581 15838,10589l0 9zm-205884 -5023c6697,6697 17555,6697 24252,0 6698,-6697 6697,-17554 0,-24252l-42317 -42309c-6706,-6630 -17505,-6596 -24177,67 -6663,6672 -6697,17471 -75,24177l42317 42317zm193763 169511c-6697,6697 -6697,17554 0,24243l42317 42318c6697,6696 17547,6696 24243,8 6697,-6697 6697,-17554 9,-24252l-42317 -42317c-6697,-6697 -17555,-6697 -24252,0zm-282918 -68612l60466 0c9468,0 17145,-7676 17145,-17144 0,-9468 -7677,-17144 -17145,-17144l-60466 0c-9468,0 -17144,7676 -17144,17144 0,9468 7677,17144 17144,17144zm396324 -34288l-60474 0c-9468,0 -17144,7676 -17144,17144 0,9468 7677,17144 17144,17144l60474 0c9469,0 17145,-7676 17145,-17144 0,-9468 -7677,-17144 -17145,-17144zm-197236 -102407c9476,0 17144,-7677 17144,-17144l0 -60467c0,-9468 -7668,-17144 -17144,-17144 -9469,0 -17145,7677 -17145,17144l0 60467c0,9468 7677,17144 17145,17144zm-17145 258248l0 60466c0,9468 7676,17145 17144,17145 9476,0 17144,-7677 17144,-17145l0 -60466c0,-9468 -7668,-17145 -17144,-17145 -9468,0 -17144,7677 -17144,17145z"/>
  <rect class="fil1" width="1042310" height="1042310"/>
 </g>
</svg>
