<?xml version="1.0" encoding="UTF-8"?>
<!DOCTYPE svg PUBLIC "-//W3C//DTD SVG 1.1//EN" "http://www.w3.org/Graphics/SVG/1.1/DTD/svg11.dtd">
<!-- Creator: CorelDRAW X7 -->
<svg xmlns="http://www.w3.org/2000/svg" xml:space="preserve" width="55.325mm" height="55.325mm" version="1.1" style="shape-rendering:geometricPrecision; text-rendering:geometricPrecision; image-rendering:optimizeQuality; fill-rule:evenodd; clip-rule:evenodd"
viewBox="0 0 12944 12944"
 xmlns:xlink="http://www.w3.org/1999/xlink">
 <defs>
  <style type="text/css">
   <![CDATA[
    .fil1 {fill:none}
    .fil0 {fill:black}
   ]]>
  </style>
 </defs>
 <g id="Слой_x0020_1">
  <metadata id="CorelCorpID_0Corel-Layer"/>
  <path class="fil0" d="M5627 1751c-467,0 -1180,-947 -2149,-227 -87,63 -120,91 -181,176 -8,11 -63,92 -67,97 -118,137 -413,58 -657,277 -639,572 -510,1500 -225,2214 150,376 506,940 204,1470 -22,39 -57,89 -90,130 -273,336 -623,409 -623,557 0,166 115,176 229,238 276,149 594,473 594,832 0,257 -37,518 -137,741 -248,555 -466,984 -466,1674 0,491 193,896 610,1064 185,74 272,62 515,62 102,193 231,341 422,456 413,247 989,189 1389,-45 436,-256 744,-459 1130,23 155,193 134,471 380,471 189,0 274,-768 796,-768 392,0 624,384 1310,476 523,70 974,-262 1160,-613 617,0 938,-338 1072,-850 137,-526 -73,-1150 -252,-1589 -234,-571 -708,-1292 239,-1909 109,-71 263,-101 275,-243 20,-238 -840,-361 -840,-1173 0,-199 65,-436 129,-585 97,-227 221,-316 -47,-458 -204,-27 -287,353 -333,490 -76,228 -112,427 -81,692 56,482 315,800 634,1014 -136,185 -342,230 -530,623 -215,451 -97,960 94,1404 34,77 50,94 91,184 225,498 545,1390 79,1859 -185,187 -392,184 -750,184 -162,243 -251,631 -823,631 -292,0 -519,-109 -702,-231 -392,-258 -822,-372 -1224,-75 -164,122 -248,292 -352,361 -81,-301 -522,-549 -823,-549 -247,0 -488,129 -685,249 -426,257 -910,376 -1323,3 -114,-103 -112,-341 -264,-396 -179,-64 -514,172 -796,-219 -331,-459 -54,-1362 140,-1769 284,-595 497,-1183 106,-1798 -115,-182 -244,-318 -417,-434 171,-255 1088,-725 357,-2168 -220,-435 -275,-725 -275,-1235 0,-409 291,-851 686,-851 322,0 220,59 358,-218 115,-231 413,-386 713,-386 286,0 510,121 698,235 104,63 185,121 301,166 303,119 648,118 911,-82 112,-85 275,-233 313,-374 68,46 99,104 152,177 97,133 252,246 407,307 665,261 1065,-429 1692,-429 718,0 713,578 916,613 222,38 636,-75 814,676 93,393 -1,529 -1,934 431,289 384,-384 384,-713 0,-529 -265,-951 -658,-1154 -364,-188 -254,58 -491,-250 -416,-544 -1247,-558 -1826,-172 -1033,689 -1083,-565 -1334,-565 -233,0 -226,249 -368,455 -98,142 -286,313 -510,313zm-2224 1043l0 6286c0,289 357,289 357,0l0 -6148 5242 0 0 7053 -5242 0c0,-140 35,-384 -164,-384 -246,0 -193,226 -193,522 0,92 49,192 138,192l5681 0c89,0 137,-100 137,-192l0 -7384c0,-88 -119,-164 -219,-164l-5517 0c-133,0 -220,87 -220,219z"/>
  <rect class="fil1" width="12944" height="12944"/>
 </g>
</svg>
