<?xml version="1.0" encoding="UTF-8"?>
<!DOCTYPE svg PUBLIC "-//W3C//DTD SVG 1.1//EN" "http://www.w3.org/Graphics/SVG/1.1/DTD/svg11.dtd">
<!-- Creator: CorelDRAW X7 -->
<svg xmlns="http://www.w3.org/2000/svg" xml:space="preserve" width="55.325mm" height="55.325mm" version="1.1" style="shape-rendering:geometricPrecision; text-rendering:geometricPrecision; image-rendering:optimizeQuality; fill-rule:evenodd; clip-rule:evenodd"
viewBox="0 0 24597 24597"
 xmlns:xlink="http://www.w3.org/1999/xlink">
 <defs>
  <style type="text/css">
   <![CDATA[
    .fil1 {fill:none}
    .fil0 {fill:black}
   ]]>
  </style>
 </defs>
 <g id="Слой_x0020_1">
  <metadata id="CorelCorpID_0Corel-Layer"/>
  <path class="fil0" d="M16339 20316l4833 0c-40,395 65,395 180,668l-5188 0c128,-283 211,-267 175,-668zm427 3507c93,-103 37,-889 37,-1085 0,-351 -93,-848 264,-893 438,-55 352,480 352,804 0,391 0,783 0,1175 177,-14 112,-46 112,-551 0,-202 19,-1158 -21,-1280 -46,-139 -197,-277 -388,-281 -531,-10 -431,586 -431,877l-1 983c-2,155 -40,225 76,251zm3983 0c127,-29 75,-140 75,-491 0,-208 0,-416 0,-624 0,-420 85,-841 -269,-968 -203,-73 -378,15 -473,123 -129,144 -107,302 -107,518 2,417 -1,835 -2,1252 0,63 -24,234 78,189 70,-30 47,-158 45,-251 -3,-208 -1,-417 -1,-625 0,-316 -108,-942 172,-1076 180,-86 365,16 417,159 44,122 27,435 27,590 0,210 -60,1096 38,1204zm-1813 1c45,-22 73,11 70,-222 -2,-100 -3,-199 -3,-299 0,-188 0,-377 0,-565 0,-359 -97,-858 262,-894 430,-43 346,456 346,805 0,391 0,783 0,1175 180,-13 120,23 120,-521 0,-218 0,-436 0,-654 0,-424 65,-893 -379,-934 -609,-57 -469,771 -469,1499l-3 478c15,166 -19,79 56,132zm-1100 0c45,-22 73,11 70,-222 -2,-100 -3,-199 -3,-299 0,-188 0,-377 0,-565 0,-356 -93,-853 263,-894 434,-50 345,456 345,805 0,391 0,783 0,1175 180,-13 120,23 120,-521 0,-218 0,-436 0,-654 0,-398 82,-895 -379,-934 -560,-48 -469,584 -469,845l0 981c-5,327 -11,238 53,283zm193 -1562l0 1487c0,101 62,74 282,74 62,0 75,-13 75,-74l0 -1487c0,-258 -357,-247 -357,0zm1092 1550l365 14c0,-325 0,-647 0,-969 0,-232 100,-793 -193,-781 -268,11 -172,549 -172,781 0,318 0,637 0,955zm1100 0l365 14c0,-325 0,-647 0,-969 0,-231 99,-790 -193,-781 -270,8 -172,546 -172,781 0,318 0,637 0,955zm-3293 12l366 -5c0,-325 0,-644 0,-962 0,-231 95,-771 -172,-781 -294,-11 -194,549 -194,781 0,322 0,644 0,967zm-7327 -870l172 -9c0,-634 0,-1268 0,-1901 0,-533 -161,-1425 481,-1419 623,7 469,874 469,1419 0,636 0,1273 0,1910l173 -18c-1,-325 33,-2864 -34,-3062 -80,-240 -287,-437 -606,-441 -812,-11 -655,954 -655,1432 0,697 0,1393 0,2089zm3411 0l180 -9c-1,-824 -26,-2032 -1,-2824 9,-288 182,-487 456,-495 646,-19 487,877 487,1418 0,630 0,1261 0,1891l172 19c0,-323 32,-2882 -29,-3079 -182,-583 -1021,-586 -1226,-20 -79,219 -39,2754 -39,3099zm-5120 -19l179 12c0,-632 0,-1253 0,-1874 0,-543 -169,-1441 462,-1448 643,-7 481,887 481,1419 0,633 0,1267 0,1901l179 9c0,-345 40,-2875 -42,-3094 -203,-541 -1002,-608 -1223,15 -73,206 -36,2730 -36,3060zm3411 10l179 9c0,-637 0,-1274 0,-1910 0,-517 -166,-1414 468,-1420 642,-6 475,901 475,1420 0,636 0,1273 0,1910l179 0c0,-341 40,-2875 -37,-3090 -208,-576 -1035,-569 -1227,7 -77,231 -37,2719 -37,3074zm-1330 -10l551 21 0 -2418c0,-258 17,-546 -268,-554 -283,-8 -285,232 -283,494l0 2457zm-1709 19l550 -5 0 -2411c1,-277 30,-534 -257,-552 -285,-17 -295,247 -294,493l1 2475zm6829 0l551 0 0 -2416c1,-271 14,-550 -276,-552 -288,-1 -276,257 -275,523l0 2445zm-1709 -9l550 8c0,-201 32,-2676 -21,-2804 -54,-133 -533,-449 -529,330l0 2466zm-1709 9l556 0 2 -2416c1,-276 13,-556 -283,-552 -273,4 -277,260 -276,522l1 2446zm7082 -10330c181,306 187,932 1055,1687l953 860c169,144 319,291 477,444 280,272 616,597 852,991 917,1538 -276,2926 -1652,3210 -529,110 -1127,150 -1685,150 -1184,0 -2177,-107 -2901,-748 -998,-884 -1023,-1980 -70,-3109 359,-426 999,-957 1409,-1354l491 -432c879,-754 911,-1440 1071,-1699zm-11750 5263l7677 -1c13,315 74,451 156,720l-7839 0c208,-362 268,-315 6,-719zm7685 -411l-4942 1c-1009,38 -2150,-91 -2875,-573 -622,-414 -1093,-1266 -1093,-2341 0,-523 158,-925 356,-1322 96,-193 199,-359 314,-519 239,-333 506,-619 791,-904l1303 -1223c834,-740 2148,-2074 2697,-3160 86,-169 155,-471 350,-513 197,134 401,1078 1060,1856 406,479 807,875 1273,1284l1825 1503c512,398 1036,1172 1036,1899 0,496 -70,897 -322,1275l-501 629c-478,440 -1172,1255 -1272,2108zm-9431 -8352c100,-211 407,-195 561,-11 -43,51 -2,28 -77,52 -36,12 -83,9 -127,10l1 1131 880 0c15,-108 -5,-122 41,-201 227,96 236,473 -7,560l-27 -211 -888 -1 0 2187c-222,-7 -155,41 -155,-484l0 -1693 -893 -10 -9 213c-254,-72 -248,-522 -13,-558l30 198 879 -1 6 -1121c-21,-2 -92,-8 -103,-11l-99 -49zm13224 -1784c104,-220 484,-225 556,0 -72,57 -93,37 -193,37l-10 1130 893 -9 37 -192c229,85 214,461 0,556 -25,-36 -17,-6 -30,-69 -10,-48 -7,-72 -7,-120l-890 -11 0 2069c3,166 38,194 -84,218 -124,-14 -66,-434 -66,-518l0 -1758c-162,-2 -795,-41 -901,10 6,208 19,51 -29,158 -3,6 -9,15 -14,22 -216,-151 -210,-417 -2,-562 70,72 46,69 46,188 109,46 737,17 900,17l-1 -1124c-65,-4 -148,-3 -205,-42zm-6858 -1039c149,-310 121,-591 -249,-672 31,-41 56,-74 140,-91 66,-13 141,-4 198,14 367,112 380,704 -89,749zm300 -5193l-215 22 0 1306 1034 -2c0,-114 -21,-148 36,-230 253,60 273,558 0,645 -58,-84 -36,-115 -36,-228l-1034 -8 0 2690 -178 -9 0 -2681 -1034 1 -6 232c-299,-23 -300,-579 -30,-642 57,82 36,116 36,224l1034 8 0 -1309 -242 -12c40,-158 138,-227 330,-225 82,1 157,18 217,52 72,40 112,90 88,166zm-782 83c288,120 203,-139 202,1052l-735 6 -38 -208c-480,-31 -581,740 -208,941 239,129 208,-68 246,-176l730 -5 6 2539c-183,101 -323,220 -368,464 -55,299 69,455 228,614 24,670 -668,1629 -953,1962 -538,629 -1026,1150 -1593,1678l-1143 1026c-439,414 -890,835 -1277,1309 -100,123 -221,320 -326,429 -185,-104 -142,-165 -141,-428 3,-577 -42,-1201 6,-1771l610 -6 52 174c245,42 410,-193 374,-478 -28,-221 -392,-585 -396,-172l-646 -2 0 -837c73,-62 240,-46 174,-209 -32,-81 -159,-187 -264,-215 -263,-69 -579,67 -559,326 181,173 187,-104 180,365 -2,190 0,382 0,572l-648 0c-5,-414 -395,-52 -398,233 -2,137 70,299 135,360 232,217 234,-36 302,-116l594 0 15 2085c-312,121 -342,601 -41,778 -93,1405 -1066,2104 -1866,2906 -354,355 -766,715 -1074,1126 -569,761 -792,1657 -242,2637 165,293 342,499 605,674 147,99 118,78 181,263 73,214 164,431 205,659 64,357 -46,479 -70,775 490,-500 101,-1661 -3,-1803 -87,-118 -298,-208 -414,-359 -479,-621 -643,-1594 -183,-2381 373,-637 941,-1101 1459,-1602l597 -563c71,-69 113,-127 190,-197 280,-250 449,-574 661,-872 30,1208 267,1821 834,2622 322,454 814,690 764,925 -52,245 -377,549 -95,993 76,118 154,132 223,214l0 2500c-349,60 -1281,56 -1805,114l-255 65 1863 2c123,-1 160,-29 197,54 -36,79 4,49 -137,54 -71,3 -166,-3 -241,-3 -462,-1 -429,-74 -753,147 -95,64 -205,102 -281,174 113,0 1322,-46 1412,44 -171,114 -1441,-27 -1794,70 -548,153 -1183,95 -1669,220l3799 16 0 -3643c-495,-3 -481,-409 -62,-419 1098,-25 2203,3 3301,3 1460,0 2950,-29 4407,2 52,133 316,432 400,531 -808,31 -697,699 -697,1407 0,703 0,1406 0,2109l171 9c0,-640 -34,-2295 1,-2862 40,-642 929,-600 943,29 6,287 14,663 -6,944 -39,538 5,1310 5,1889l179 -9 2 -1265c164,158 118,132 116,434 -1,393 -57,1432 19,1709l213 0 15 -2199c-162,-77 -267,-164 -311,-387l5371 0c-29,222 -151,313 -305,387l1 2199 223 0 15 -2007c46,-110 143,-154 210,-265 447,-748 -820,-905 416,-2021 93,-84 150,-171 237,-268 977,-1085 653,-2431 -285,-3463l-845 -850c-573,-513 -1283,-895 -1689,-1582 -265,-447 -409,-927 -443,-1529 182,-148 313,-312 227,-573 -48,-146 -144,-166 -186,-258 -62,-136 -21,-1945 -21,-2188 210,0 440,-27 646,9 3,96 7,110 47,166 462,73 472,-895 -15,-820l-38 168c-202,39 -434,8 -639,8 0,-288 -33,-598 7,-883l176 -24c35,-509 -882,-488 -831,-17l167 50c49,177 12,664 11,874l-631 -1c-39,-120 -24,-275 -237,-150 -299,176 -202,832 180,799 53,-72 42,-60 43,-179l645 0c0,271 37,1967 -5,2144 -30,127 -135,133 -194,258 -121,260 36,530 209,595 -23,871 -353,1544 -789,2000 -141,-186 -176,-1132 -1459,-2224 -346,-295 -695,-542 -1026,-817 -356,-295 -683,-563 -1023,-850 -970,-819 -2081,-1963 -2266,-3293 -52,-375 202,-237 245,-631 40,-360 -146,-493 -318,-633l-1 -2562 732 -7c64,457 394,110 456,-117 93,-338 -97,-662 -406,-639l-54 205 -723 0c-7,-1195 -92,-939 199,-1055 59,-570 -1031,-563 -958,-2z"/>
  <rect class="fil1" width="24597" height="24597"/>
 </g>
</svg>
