<?xml version="1.0" encoding="UTF-8"?>
<!DOCTYPE svg PUBLIC "-//W3C//DTD SVG 1.1//EN" "http://www.w3.org/Graphics/SVG/1.1/DTD/svg11.dtd">
<!-- Creator: CorelDRAW X7 -->
<svg xmlns="http://www.w3.org/2000/svg" xml:space="preserve" width="55.325mm" height="55.325mm" version="1.1" style="shape-rendering:geometricPrecision; text-rendering:geometricPrecision; image-rendering:optimizeQuality; fill-rule:evenodd; clip-rule:evenodd"
viewBox="0 0 14660 14660"
 xmlns:xlink="http://www.w3.org/1999/xlink">
 <defs>
  <style type="text/css">
   <![CDATA[
    .fil1 {fill:none}
    .fil0 {fill:black}
   ]]>
  </style>
 </defs>
 <g id="Слой_x0020_1">
  <metadata id="CorelCorpID_0Corel-Layer"/>
  <path class="fil0" d="M6942 9741c35,-150 110,-327 162,-470 38,-104 113,-395 282,-323 76,65 181,270 183,399 59,61 147,375 174,460 48,157 97,312 129,481 61,319 5,758 -310,872 -164,60 -393,45 -530,-31 -433,-240 -236,-1037 -90,-1388zm260 -2349c-233,-1442 -656,-1576 -571,-1754 26,-54 61,-113 92,-177 65,-131 109,-233 161,-372l220 -715c27,-63 41,-55 53,-61 64,132 -44,55 126,304 181,4 195,-141 215,-311 101,55 121,277 152,390 36,128 87,282 133,401 53,137 99,252 160,374 32,66 64,113 95,174 36,73 2,89 -40,156 -320,514 -415,916 -540,1595l-256 -4zm-1508 -2601c-77,-30 -375,-166 -417,-220 -226,-15 -1353,-744 -2319,22 -63,50 -199,184 -248,248 -87,113 -104,181 -169,311 -36,182 -39,266 -19,457l72 308c47,41 47,58 69,121 27,27 45,74 75,104 19,19 31,30 58,31 89,5 20,7 48,-20 77,-81 -150,-470 179,-809 601,-621 968,122 1417,218 348,74 589,-106 638,-393 5,-198 -75,-233 -76,-380l283 61c66,31 27,5 60,42 244,2 857,613 934,774 -247,375 -656,790 -981,1096 -97,91 -258,251 -370,321l-165 135c-303,218 -1090,734 -1429,632 2,-64 64,-123 102,-188 41,-69 53,-111 81,-185 22,-243 -16,-229 -57,-413 -28,-20 -47,-52 -75,-82 -232,-253 -585,-193 -873,-91 -397,141 -646,360 -972,275 -189,-49 -308,-146 -386,-264 -206,-312 820,-295 893,-968 -16,-234 -226,-289 -469,-241 -251,49 -373,204 -459,240 -24,35 -14,21 -46,53 -196,192 -149,178 -279,329 -114,253 -157,436 -65,747 136,464 445,787 926,885 217,44 642,31 795,101l-7 79c47,71 10,146 92,236 60,67 119,66 182,124 -39,86 -138,111 -240,135 -309,118 -741,37 -1044,-53 -527,-154 -550,-436 -739,-460 -80,74 -105,148 -123,270 -85,597 433,602 500,659 -35,50 -114,101 -170,149 -133,111 -353,422 -332,609 56,44 83,43 169,57l385 -14 373 -91 -96 321c-3,254 137,437 323,555l175 99c190,-25 186,20 155,-200 -96,-680 299,-1610 817,-1744 4,110 -30,175 46,252 52,53 112,74 149,142 28,161 -587,506 -499,1332 31,162 82,306 157,433 44,75 70,116 123,182 48,60 98,97 134,159 39,4 20,-11 43,23 165,111 295,199 519,266 298,88 423,47 642,-69 8,-55 61,-59 85,-219 -35,-18 -50,-24 -107,-25 -118,24 -261,56 -378,23 -190,-43 -313,-193 -348,-391 -67,-271 172,-518 283,-616 348,-308 832,-637 524,-1157 -64,-109 -113,-166 -231,-227 -116,-60 -259,-45 -358,-91 54,-95 783,-522 1036,-757 687,-638 890,-884 1488,-1694l283 -404c1,-6 6,-6 10,-9 281,389 373,892 479,1430 -40,54 6,18 -60,35 -7,2 -65,4 -75,3 -158,-2 -232,-20 -361,71 -79,63 -134,134 -139,291 -22,672 290,503 723,558 -13,59 -185,250 -227,268 -23,72 -63,116 -96,200 -32,76 -35,125 -92,170 -57,-16 -134,-67 -170,-105 -298,-109 -509,-21 -678,158 -174,185 -220,415 -213,735l64 399c37,73 66,174 99,250 36,84 76,165 105,258 137,432 -323,754 -701,567 -201,-99 -219,-347 -316,-389 -100,76 -89,292 -71,439 18,74 28,133 57,204 32,80 63,119 88,190 18,10 167,175 202,207 84,78 140,111 225,170 73,36 112,65 191,99l193 80c3,2 9,5 13,8 134,-14 292,45 458,21 223,-32 223,-122 366,-171 -48,434 -62,461 123,834 59,119 113,224 181,333 158,251 86,129 231,307l138 76c222,46 352,-34 457,-154 177,-201 507,-797 501,-1118 -1,-100 -41,-184 -33,-280 97,50 150,124 272,157 336,92 767,-66 1017,-242 595,-420 590,-1060 422,-1159 -72,34 -83,137 -140,222 -194,289 -533,261 -713,116 -363,-294 -98,-621 20,-963 117,-341 138,-857 -64,-1128 -89,-119 -229,-230 -415,-270 -292,-61 -337,109 -496,148 -64,-66 -114,-246 -185,-345 -55,-78 -210,-214 -228,-287 222,-55 720,123 722,-429 2,-493 -177,-498 -634,-498 22,-446 271,-1198 484,-1476 51,61 91,136 138,208 193,297 541,755 768,1024l695 733c121,110 244,212 385,321 159,124 788,513 821,584 -99,66 -548,-2 -664,512 -86,380 204,618 371,758 58,49 102,98 160,145 678,537 299,1155 -205,1079 -121,-15 -183,-54 -276,-3 139,836 2106,3 1651,-1331 -165,-483 -489,-675 -439,-798 60,-68 104,-69 152,-133 55,-74 33,-149 37,-243 451,117 754,817 823,1287 48,326 -58,559 2,624 121,134 463,-159 544,-280 200,-297 67,-375 9,-660 92,-5 352,97 530,108 154,4 242,2 379,-37 126,-285 -489,-784 -489,-784 60,-47 192,-43 286,-104 300,-194 269,-670 90,-821 -158,18 -365,399 -630,407 -26,24 15,-3 -37,26l-299 85c-125,28 -256,47 -389,54 -188,8 -604,-52 -665,-196 81,-70 147,-65 206,-155 54,-82 39,-161 56,-225 47,-178 453,-102 724,-147 149,-32 233,-54 382,-109 80,-64 153,-92 240,-174 74,-68 131,-141 198,-220 137,-277 319,-568 190,-968 -87,-270 -357,-540 -554,-666 -761,-486 -1207,292 -143,772 113,51 368,136 270,298 -62,104 -198,215 -350,261 -350,105 -634,-115 -920,-227 -331,-129 -706,-211 -959,44 -370,374 44,798 41,879 -100,27 -208,11 -298,-25 -182,-38 -661,-267 -766,-365 -432,-231 -1162,-907 -1476,-1286 -140,-170 -278,-320 -405,-508 95,-225 808,-873 1277,-877 -3,142 -82,189 -78,343 12,400 449,514 725,403 200,-81 328,-210 504,-316 131,-79 451,-210 596,-40 64,6 73,20 124,62 45,37 66,54 101,90 64,64 112,125 142,228l11 53c124,137 -23,409 28,569 127,-15 134,-50 188,-154 135,-261 204,-599 113,-891 -136,-436 -574,-632 -684,-733 -76,-27 -151,-60 -232,-86 -69,-22 -175,-33 -223,-68 -129,20 -330,-9 -494,10 -547,63 -1329,383 -1749,691 -328,241 -292,293 -485,488 -58,-44 -133,-218 -166,-291 -134,-295 -290,-770 -248,-1097 32,-250 198,-484 502,-338 140,67 325,304 481,413 449,314 1041,55 1269,-262 358,-497 175,-1050 -203,-1181l-87 14c-7,86 17,109 43,184 127,277 4,592 -279,627 -508,63 -691,-853 -1340,-653 -252,77 -368,435 -520,461 -92,-72 -289,-553 -269,-733 359,-16 501,-121 572,-442 16,-382 -226,-536 -326,-800 -55,-36 -253,-495 -496,-248 -111,113 -255,367 -341,516 -116,200 -241,359 -142,652 88,259 287,307 540,321 24,176 -176,676 -270,733 -176,-36 -263,-427 -587,-474 -682,-99 -870,940 -1412,617 -201,-120 -232,-347 -144,-567 12,-32 33,-68 40,-95 52,-191 -167,-111 -293,34 -630,727 457,1818 1255,1312 251,-160 536,-641 867,-408 272,192 97,863 15,1100 -13,38 -256,654 -286,601 -2,-4 -8,7 -12,10 -156,-321 -565,-528 -712,-653z"/>
  <rect class="fil1" width="14660" height="14660"/>
 </g>
</svg>
