<?xml version="1.0" encoding="UTF-8"?>
<!DOCTYPE svg PUBLIC "-//W3C//DTD SVG 1.1//EN" "http://www.w3.org/Graphics/SVG/1.1/DTD/svg11.dtd">
<!-- Creator: CorelDRAW X7 -->
<svg xmlns="http://www.w3.org/2000/svg" xml:space="preserve" width="9.2604mm" height="9.2604mm" version="1.1" style="shape-rendering:geometricPrecision; text-rendering:geometricPrecision; image-rendering:optimizeQuality; fill-rule:evenodd; clip-rule:evenodd"
viewBox="0 0 256 256"
 xmlns:xlink="http://www.w3.org/1999/xlink">
 <defs>
  <style type="text/css">
   <![CDATA[
    .fil0 {fill:#EE3824}
   ]]>
  </style>
 </defs>
 <g id="Слой_x0020_1">
  <metadata id="CorelCorpID_0Corel-Layer"/>
  <path class="fil0" d="M128 0c-71,0 -128,57 -128,128 0,71 57,128 128,128 71,0 128,-57 128,-128 0,-71 -57,-128 -128,-128zm14 155l-28 0 -5 -112 39 0 -6 112zm-34 39c0,-7 2,-11 5,-15 4,-3 9,-5 15,-5 7,0 11,2 15,5 3,4 5,9 5,15 0,6 -2,11 -5,14 -4,4 -9,5 -15,5 -6,0 -11,-1 -15,-5 -3,-3 -5,-8 -5,-14z"/>
 </g>
</svg>
